<svg width="64" height="64" viewBox="0 0 64 64" xmlns="http://www.w3.org/2000/svg"><rect x="20" y="25" width="24" height="30" rx="4" fill="#FF6600" stroke="#E55A00" stroke-width="2"/><rect x="22" y="10" width="20" height="18" rx="3" fill="#FF6600" stroke="#E55A00" stroke-width="2"/><circle cx="28" cy="18" r="2" fill="#FFFFFF"/><circle cx="36" cy="18" r="2" fill="#FFFFFF"/><circle cx="28" cy="18" r="1" fill="#000000"/><circle cx="36" cy="18" r="1" fill="#000000"/><path d="M 26 22 Q 32 26 38 22" stroke="#FFFFFF" stroke-width="2" fill="none" stroke-linecap="round"/><line x1="32" y1="10" x2="32" y2="6" stroke="#FF6600" stroke-width="2"/><circle cx="32" cy="5" r="1.5" fill="#00FF00" opacity="0.8"><animate attributeName="opacity" values="0.8;0.3;0.8" dur="2s" repeatCount="indefinite"/></circle><rect x="14" y="28" width="8" height="20" rx="2" fill="#FF6600" stroke="#E55A00" stroke-width="1"/><rect x="42" y="28" width="8" height="20" rx="2" fill="#FF6600" stroke="#E55A00" stroke-width="1"/><circle cx="18" cy="50" r="4" fill="#FF6600" stroke="#E55A00" stroke-width="1"/><circle cx="46" cy="50" r="4" fill="#FF6600" stroke="#E55A00" stroke-width="1"/><rect x="26" y="30" width="12" height="8" rx="1" fill="#333333" stroke="#666666" stroke-width="1"/><rect x="27" y="31" width="10" height="6" rx="1" fill="#1a1a1a"/><rect x="28" y="32" width="2" height="4" fill="#FFD700" opacity="0.9"/><rect x="32" y="32" width="2" height="4" fill="#FFD700" opacity="0.9"/><rect x="36" y="32" width="2" height="4" fill="#FFD700" opacity="0.9"/><circle cx="32" cy="35" r="1" fill="#FFD700"/><rect x="24" y="55" width="6" height="12" rx="2" fill="#FF6600" stroke="#E55A00" stroke-width="1"/><rect x="34" y="55" width="6" height="12" rx="2" fill="#FF6600" stroke="#E55A00" stroke-width="1"/></svg> 
